HIERARCHY
ROOT Hips
{
  OFFSET 0.0 0.0 0.0
  CHANNELS 6 XPOSITION YPOSITION ZPOSITION ZROTATION XROTATION YROTATION 
  JOINT RightUpLeg
  {
    OFFSET -0.089458038 -0.086670642 0.001016508
    CHANNELS 3 ZROTATION XROTATION YROTATION 
    JOINT RightLeg
    {
      OFFSET 1.524e-006 -0.44256706 0.04075049
      CHANNELS 3 ZROTATION XROTATION YROTATION 
      JOINT RightFoot
      {
        OFFSET 0.001562862 -0.419119812 -0.041630854
        CHANNELS 3 ZROTATION XROTATION YROTATION 
        End Site
        {
          OFFSET 7.5692e-005 -0.04415155 0.084991702
        }
      }
    }
  }
  JOINT Spine
  {
    OFFSET 0.0 0.11890502 0.0
    CHANNELS 3 ZROTATION XROTATION YROTATION 
    JOINT Spine1
    {
      OFFSET 0.0 0.256575052 0.001270508
      CHANNELS 3 ZROTATION XROTATION YROTATION 
      End Site
      {
        OFFSET -0.002899918 0.215084406 0.0252476
      }
      JOINT RightArm
      {
        OFFSET -0.16272758 -0.05365633 0.001021842
        CHANNELS 3 ZROTATION XROTATION YROTATION 
        JOINT RightForeArm
        {
          OFFSET -0.263648698 -0.000263906 -0.014099794
          CHANNELS 3 ZROTATION XROTATION YROTATION 
          End Site
          {
            OFFSET -0.220319092 0.001914652 0.010174732
          }
        }
      }
      JOINT LeftArm
      {
        OFFSET 0.16272758 -0.05365633 0.001020826
        CHANNELS 3 ZROTATION XROTATION YROTATION 
        JOINT LeftForeArm
        {
          OFFSET 0.26260552 -0.000263144 -0.01410081
          CHANNELS 3 ZROTATION XROTATION YROTATION 
          End Site
          {
            OFFSET 0.220897958 0.001915922 0.01017524
          }
        }
      }
    }
  }
  JOINT LeftUpLeg
  {
    OFFSET 0.089458038 -0.086670642 0.001016508
    CHANNELS 3 ZROTATION XROTATION YROTATION 
    JOINT LeftLeg
    {
      OFFSET -3.048e-006 -0.442569346 0.040725598
      CHANNELS 3 ZROTATION XROTATION YROTATION 
      JOINT LeftFoot
      {
        OFFSET -0.002532888 -0.41911778 -0.041605708
        CHANNELS 3 ZROTATION XROTATION YROTATION 
        End Site
        {
          OFFSET -0.00040005 -0.044151042 0.084991194
        }
      }
    }
  }
}
MOTION
Frames: 14
Frame Time: 0.033333
0.99289616 0.9867671873 2.17858086 1.76176544086 2.75831063805 177.035962456 3.87815280932 2.38215803319 -0.340494241594 -1.01037152779 4.27957199146 -2.99405568447 -3.12120114997 -30.8048156851 0.229242359485 0.4562155487 0.910198906202 -0.0891112436154 4.77879265233 3.14317557608 -1.14322009453 77.0077669294 -10.7939502897 7.37015233617 10.7835940154 23.049386892 -0.315160189508 -83.9945723371 -12.0208793684 -14.919035355 -16.9296688768 48.3117926411 7.68946624119 2.52371135586 1.988280874 2.45097645795 0.257897457652 7.20618937627 0.0980746796221 3.57247473664 -33.0865223396 -0.153369323151 
0.9932543 0.9867621073 2.17656918 1.78385405919 3.30137086811 177.711604769 3.88763012368 3.27333144746 -0.581949459562 -0.936511142763 4.0114170571 -3.47923411674 -3.12057725488 -30.9249211466 0.224983443052 0.71178735362 0.970268712405 -0.459865964646 4.35780327067 3.74087795983 -1.46652539134 77.1958088675 -10.7682901228 7.52436776234 10.8037097763 23.4710417902 -0.418310960334 -83.8951589338 -12.1704383132 -15.0027905497 -16.8146672742 48.5069106552 7.71328994101 2.54192405529 2.5915650164 2.4329897951 0.321228599142 7.25387348819 -0.546675481202 3.61812494629 -33.2347271993 -0.149205202274 
0.9939401 0.9864522273 2.1759926 1.64669340193 3.31038436994 177.720593298 3.7728415376 3.13459749881 -0.651775230499 -0.917098464481 4.39326817416 -3.42537658103 -3.21529468975 -31.1808244291 0.222900942387 1.22662630924 0.994254415779 -0.548982644399 3.31737656265 3.73716148315 -1.35257670509 77.4893977188 -10.4491333121 7.41161926839 10.8158026262 24.1722170576 -0.294524453798 -83.6157837061 -12.4950379308 -14.9950656057 -16.6701592544 48.9937153128 7.77122616687 2.38950753018 2.52205204678 2.30973860464 0.402154361296 7.47931668835 -0.403735069841 3.55780818606 -33.3693365675 -0.139976175963 
0.99480878 0.9859620073 2.17580464 1.52164896665 3.18036126036 177.664394502 3.7114885096 2.73823692552 -0.625614325318 -0.94641246246 4.93322280258 -3.40422540616 -3.31006399137 -31.4647280721 0.219236265753 1.72161364021 0.97594865503 -0.587885267477 2.48703772233 3.57957856027 -1.22889788075 77.6823300723 -10.1577284138 7.25212154467 10.8044346301 24.597650758 -0.122848089237 -83.4147165973 -12.7668214032 -14.8979249478 -16.5781634365 49.318497638 7.81063806593 2.22282081891 2.16999634932 2.06117884268 0.581465369905 7.94358684435 -0.106118247896 3.39209520364 -33.6001559803 -0.121260216997 
0.9957943 0.9853828873 2.17570558 1.41239027247 3.16035499595 177.654326803 3.66013829365 2.45934365313 -0.646395389311 -0.949896605988 5.47021270201 -3.40010253322 -3.380768829 -31.7339365632 0.213756826532 1.73895356952 1.02614681017 -0.5836936124 2.57348422501 3.52067479542 -1.2420445008 77.6410825599 -10.2031457567 7.37245581747 10.8384634863 24.6715721878 -0.262238469756 -83.4533959586 -12.7745190264 -14.7407998611 -16.6107195331 49.1297624358 7.78805233789 2.09540214584 1.86811564838 1.76323745334 0.748829070315 8.5279564854 0.185248177226 3.22108775739 -33.8849748687 -0.100824130918 
0.9969119 0.9844989673 2.17581734 1.28007766214 3.2154129374 177.699979787 3.59991736951 2.15784672344 -0.682984339169 -0.974033000411 6.19772219061 -3.42101849345 -3.43298007568 -32.0968552496 0.202915515391 1.43202215714 1.27004774279 -0.519827715122 3.105283821 3.41436012623 -1.27225869637 77.5137541733 -10.3947368318 7.59023298406 10.9070334629 24.6146101177 -0.547227979473 -83.5177295104 -12.5054044504 -14.6144533142 -16.7401823538 48.6088648889 7.72620924383 2.06038504663 1.5177935383 1.61976847605 0.721768821319 9.33180998655 0.253656950714 3.12851222715 -34.1951884004 -0.0837839228465 
0.9979152 0.9830918073 2.17606626 1.1017605261 3.29160113627 177.810792776 3.50677834867 1.6871757197 -0.695501514596 -1.05003272875 7.31031987904 -3.49585068633 -3.47108185908 -32.6737842534 0.18211896341 1.13670153274 1.66077170247 -0.334740607631 3.50273487668 3.24185238624 -1.14633466079 77.3408206137 -10.5081640758 7.5347684329 10.916938091 24.3841783181 -0.584544291117 -83.5471266446 -12.1039464216 -14.7313280962 -16.8627740041 48.1729861217 7.67543447131 2.05230450595 1.03025762356 1.67887149032 0.547317465623 10.4268003011 0.00874439720942 3.03423555292 -34.5738984842 -0.0646105546498 
0.99853242 0.9813163473 2.17638884 0.85482528194 3.42480092415 177.944828408 3.25441523856 1.13267812443 -0.840464222241 -1.02458355062 8.71155709293 -3.45763727203 -3.51162564855 -33.4044198342 0.154527093577 0.987796365198 2.25719950888 -0.0405314497726 3.60537383689 2.92848202646 -0.845003576636 77.0564525178 -10.5426727528 7.1319029582 10.8614334125 23.9015161702 -0.344875727905 -83.5883809872 -11.7695002325 -14.995671785 -16.9378258302 47.9960978826 7.65463313019 1.95666136701 0.537907599381 1.88878337392 0.364253241385 11.6389710486 -0.364086355317 2.87942590029 -35.0558093113 -0.039824435147 
0.99877118 0.9793859473 2.17681302 0.519119243078 3.64475201189 177.985427053 2.74627541785 0.604452051391 -1.26767051679 -0.77744212013 10.2166464794 -3.06788960251 -3.5694890902 -34.1624513037 0.12556671797 0.874984691997 2.96447840404 0.218792797045 3.61740094624 2.58677641346 -0.560571234264 76.7096701533 -10.5665092592 6.90938777476 10.8899349381 23.6430703498 -0.320502758141 -83.608413932 -11.5392204046 -15.052789242 -17.0231587986 47.8055048689 7.6323214635 1.78704866673 0.135155503152 2.6482073483 0.166942363116 12.8717886041 -1.05542462949 2.67380796453 -35.6165166157 -0.0121781264048 
0.99876102 0.9776028673 2.1774658 0.119434101889 3.81870753854 178.012283357 2.11349745139 0.0761622721662 -1.80300153403 -0.479450358153 11.57502511 -2.55132004771 -3.61107661796 -34.7966753493 0.100099590587 0.745194289098 3.61795077647 0.299597096556 3.66938807733 2.21332621564 -0.468349433122 76.42972802 -10.5717471606 7.1246851558 11.0332049862 24.1163836762 -0.659571357828 -83.525550077 -11.3395731214 -14.7481457295 -17.1608332142 47.4593406365 7.59277979084 1.65096162983 -0.366805170813 4.42139062429 -0.054034193483 14.1946741567 -2.78674877099 2.21147779569 -36.0692147237 0.0155881492075 
0.99825048 0.9760534673 2.17822272 -0.307150458685 3.83722375449 178.254481865 1.53104527923 -0.526221786042 -2.17169173033 -0.369959650993 12.752798171 -2.38578657119 -3.58624802655 -35.3023928007 0.0774402179021 0.941200387793 4.16469119783 0.118412681784 3.18660938934 1.7459219633 -0.541851553379 76.3465704668 -10.3655975372 7.45175260618 11.2040032579 24.7255545879 -0.942625015843 -83.246523189 -11.3504271457 -14.3573137675 -17.2222946714 47.2562791125 7.57025468074 1.55933570933 -1.20325820438 6.44132643688 -0.226865987262 15.8036302299 -5.13020887334 1.17941977696 -36.4037061629 0.047213452519 
0.99686872 0.9748876073 2.17881962 -0.732168851547 3.77609313453 178.74247156 1.01166937045 -1.08077903874 -2.36482087865 -0.456844833238 13.7198308679 -2.62525641858 -3.48001958849 -35.6958014516 0.0573802457945 1.57306470973 4.70846859775 -0.209105681151 1.99438620934 1.20752696589 -0.630440014049 76.3591994866 -10.0248991637 7.54546109405 11.2956652503 24.5683936427 -0.888549927937 -82.9288510907 -11.790243517 -14.2386400844 -17.0866027183 47.4874707706 7.59716733361 1.47598659072 -2.27273328005 7.39975352226 -0.332358605838 17.6128670863 -6.2020990612 -0.182728424391 -36.9414913525 0.0778230019804 
0.99481386 0.9745650273 2.17910918 -1.10917875187 3.74958517036 179.14647725 0.549574683062 -1.35205142085 -2.46188576416 -0.630593639944 14.221807937 -2.85806362989 -3.28775061713 -35.871508068 0.0447963926461 2.20479637658 5.33176434065 -0.409973860678 0.864115086264 0.637264600329 -0.603737336128 76.2167285707 -9.83404233396 7.46871367344 11.3397951025 23.9297214364 -0.762002317429 -82.7944671188 -12.4369992521 -14.2968512254 -16.8477168521 47.9136984805 7.64746143157 1.52593064148 -3.22314876697 7.81493937756 -0.236030607024 19.1518538478 -5.23509283134 -1.00918851768 -37.9549821423 0.0881426974447 
0.9923399 0.9753168673 2.17899742 -1.41178569401 3.76178516888 179.387077493 0.162150905371 -1.26180861366 -2.48920395952 -0.834880595955 14.0994946169 -2.96180267744 -2.99984981932 -35.7745091365 0.0407975136552 2.46064949992 5.95944848009 -0.409814818656 0.421884083085 0.0663974295202 -0.504000352546 75.8326465431 -9.85236004754 7.37028723241 11.3838754359 23.7606401035 -0.780457808731 -82.7863391937 -12.7556403835 -14.1991308552 -16.717750305 48.0954805501 7.66980724921 1.93353882879 -3.86051896843 8.40460839163 0.026819953403 19.9844351246 -2.77256759073 -0.695296982447 -39.1583829268 0.0882121666051 
